<svg xmlns="http://www.w3.org/2000/svg" width="860" height="190" viewBox="0 0 860 190">
<style>
.cell { }
.title { font-family: monospace; font-size: 14px; fill: #cbd5e1; }
.meta { font-family: monospace; font-size: 12px; fill: #94a3b8; }
</style>
<text x="40" y="20" class="title">harsh@github ~ $ ./contributions.sh</text>
<text x="40" y="42" class="meta">harshmeena9977-ops • 19 active days • 47 total contribution points</text>

<rect class="cell" x="40" y="35" width="12" height="12" rx="3" fill="#111827"><title>2025-07-20: level 0</title></rect>
<rect class="cell" x="40" y="50" width="12" height="12" rx="3" fill="#111827"><title>2025-07-21: level 0</title></rect>
<rect class="cell" x="40" y="65" width="12" height="12" rx="3" fill="#111827"><title>2025-07-22: level 0</title></rect>
<rect class="cell" x="40" y="80" width="12" height="12" rx="3" fill="#111827"><title>2025-07-23: level 0</title></rect>
<rect class="cell" x="40" y="95" width="12" height="12" rx="3" fill="#111827"><title>2025-07-24: level 0</title></rect>
<rect class="cell" x="40" y="110" width="12" height="12" rx="3" fill="#111827"><title>2025-07-25: level 0</title></rect>
<rect class="cell" x="40" y="125" width="12" height="12" rx="3" fill="#111827"><title>2025-07-26: level 0</title></rect>
<rect class="cell" x="55" y="35" width="12" height="12" rx="3" fill="#111827"><title>2025-07-27: level 0</title></rect>
<rect class="cell" x="55" y="50" width="12" height="12" rx="3" fill="#111827"><title>2025-07-28: level 0</title></rect>
<rect class="cell" x="55" y="65" width="12" height="12" rx="3" fill="#111827"><title>2025-07-29: level 0</title></rect>
<rect class="cell" x="55" y="80" width="12" height="12" rx="3" fill="#111827"><title>2025-07-30: level 0</title></rect>
<rect class="cell" x="55" y="95" width="12" height="12" rx="3" fill="#111827"><title>2025-07-31: level 0</title></rect>
<rect class="cell" x="55" y="110" width="12" height="12" rx="3" fill="#111827"><title>2025-08-01: level 0</title></rect>
<rect class="cell" x="55" y="125" width="12" height="12" rx="3" fill="#111827"><title>2025-08-02: level 0</title></rect>
<rect class="cell" x="70" y="35" width="12" height="12" rx="3" fill="#111827"><title>2025-08-03: level 0</title></rect>
<rect class="cell" x="70" y="50" width="12" height="12" rx="3" fill="#111827"><title>2025-08-04: level 0</title></rect>
<rect class="cell" x="70" y="65" width="12" height="12" rx="3" fill="#111827"><title>2025-08-05: level 0</title></rect>
<rect class="cell" x="70" y="80" width="12" height="12" rx="3" fill="#111827"><title>2025-08-06: level 0</title></rect>
<rect class="cell" x="70" y="95" width="12" height="12" rx="3" fill="#111827"><title>2025-08-07: level 0</title></rect>
<rect class="cell" x="70" y="110" width="12" height="12" rx="3" fill="#111827"><title>2025-08-08: level 0</title></rect>
<rect class="cell" x="70" y="125" width="12" height="12" rx="3" fill="#111827"><title>2025-08-09: level 0</title></rect>
<rect class="cell" x="85" y="35" width="12" height="12" rx="3" fill="#111827"><title>2025-08-10: level 0</title></rect>
<rect class="cell" x="85" y="50" width="12" height="12" rx="3" fill="#111827"><title>2025-08-11: level 0</title></rect>
<rect class="cell" x="85" y="65" width="12" height="12" rx="3" fill="#111827"><title>2025-08-12: level 0</title></rect>
<rect class="cell" x="85" y="80" width="12" height="12" rx="3" fill="#111827"><title>2025-08-13: level 0</title></rect>
<rect class="cell" x="85" y="95" width="12" height="12" rx="3" fill="#111827"><title>2025-08-14: level 0</title></rect>
<rect class="cell" x="85" y="110" width="12" height="12" rx="3" fill="#111827"><title>2025-08-15: level 0</title></rect>
<rect class="cell" x="85" y="125" width="12" height="12" rx="3" fill="#111827"><title>2025-08-16: level 0</title></rect>
<rect class="cell" x="100" y="35" width="12" height="12" rx="3" fill="#111827"><title>2025-08-17: level 0</title></rect>
<rect class="cell" x="100" y="50" width="12" height="12" rx="3" fill="#111827"><title>2025-08-18: level 0</title></rect>
<rect class="cell" x="100" y="65" width="12" height="12" rx="3" fill="#111827"><title>2025-08-19: level 0</title></rect>
<rect class="cell" x="100" y="80" width="12" height="12" rx="3" fill="#111827"><title>2025-08-20: level 0</title></rect>
<rect class="cell" x="100" y="95" width="12" height="12" rx="3" fill="#111827"><title>2025-08-21: level 0</title></rect>
<rect class="cell" x="100" y="110" width="12" height="12" rx="3" fill="#111827"><title>2025-08-22: level 0</title></rect>
<rect class="cell" x="100" y="125" width="12" height="12" rx="3" fill="#111827"><title>2025-08-23: level 0</title></rect>
<rect class="cell" x="115" y="35" width="12" height="12" rx="3" fill="#111827"><title>2025-08-24: level 0</title></rect>
<rect class="cell" x="115" y="50" width="12" height="12" rx="3" fill="#111827"><title>2025-08-25: level 0</title></rect>
<rect class="cell" x="115" y="65" width="12" height="12" rx="3" fill="#111827"><title>2025-08-26: level 0</title></rect>
<rect class="cell" x="115" y="80" width="12" height="12" rx="3" fill="#111827"><title>2025-08-27: level 0</title></rect>
<rect class="cell" x="115" y="95" width="12" height="12" rx="3" fill="#111827"><title>2025-08-28: level 0</title></rect>
<rect class="cell" x="115" y="110" width="12" height="12" rx="3" fill="#111827"><title>2025-08-29: level 0</title></rect>
<rect class="cell" x="115" y="125" width="12" height="12" rx="3" fill="#111827"><title>2025-08-30: level 0</title></rect>
<rect class="cell" x="130" y="35" width="12" height="12" rx="3" fill="#111827"><title>2025-08-31: level 0</title></rect>
<rect class="cell" x="130" y="50" width="12" height="12" rx="3" fill="#111827"><title>2025-09-01: level 0</title></rect>
<rect class="cell" x="130" y="65" width="12" height="12" rx="3" fill="#111827"><title>2025-09-02: level 0</title></rect>
<rect class="cell" x="130" y="80" width="12" height="12" rx="3" fill="#111827"><title>2025-09-03: level 0</title></rect>
<rect class="cell" x="130" y="95" width="12" height="12" rx="3" fill="#111827"><title>2025-09-04: level 0</title></rect>
<rect class="cell" x="130" y="110" width="12" height="12" rx="3" fill="#111827"><title>2025-09-05: level 0</title></rect>
<rect class="cell" x="130" y="125" width="12" height="12" rx="3" fill="#111827"><title>2025-09-06: level 0</title></rect>
<rect class="cell" x="145" y="35" width="12" height="12" rx="3" fill="#111827"><title>2025-09-07: level 0</title></rect>
<rect class="cell" x="145" y="50" width="12" height="12" rx="3" fill="#111827"><title>2025-09-08: level 0</title></rect>
<rect class="cell" x="145" y="65" width="12" height="12" rx="3" fill="#111827"><title>2025-09-09: level 0</title></rect>
<rect class="cell" x="145" y="80" width="12" height="12" rx="3" fill="#111827"><title>2025-09-10: level 0</title></rect>
<rect class="cell" x="145" y="95" width="12" height="12" rx="3" fill="#111827"><title>2025-09-11: level 0</title></rect>
<rect class="cell" x="145" y="110" width="12" height="12" rx="3" fill="#111827"><title>2025-09-12: level 0</title></rect>
<rect class="cell" x="145" y="125" width="12" height="12" rx="3" fill="#111827"><title>2025-09-13: level 0</title></rect>
<rect class="cell" x="160" y="35" width="12" height="12" rx="3" fill="#111827"><title>2025-09-14: level 0</title></rect>
<rect class="cell" x="160" y="50" width="12" height="12" rx="3" fill="#111827"><title>2025-09-15: level 0</title></rect>
<rect class="cell" x="160" y="65" width="12" height="12" rx="3" fill="#111827"><title>2025-09-16: level 0</title></rect>
<rect class="cell" x="160" y="80" width="12" height="12" rx="3" fill="#111827"><title>2025-09-17: level 0</title></rect>
<rect class="cell" x="160" y="95" width="12" height="12" rx="3" fill="#111827"><title>2025-09-18: level 0</title></rect>
<rect class="cell" x="160" y="110" width="12" height="12" rx="3" fill="#111827"><title>2025-09-19: level 0</title></rect>
<rect class="cell" x="160" y="125" width="12" height="12" rx="3" fill="#111827"><title>2025-09-20: level 0</title></rect>
<rect class="cell" x="175" y="35" width="12" height="12" rx="3" fill="#111827"><title>2025-09-21: level 0</title></rect>
<rect class="cell" x="175" y="50" width="12" height="12" rx="3" fill="#111827"><title>2025-09-22: level 0</title></rect>
<rect class="cell" x="175" y="65" width="12" height="12" rx="3" fill="#111827"><title>2025-09-23: level 0</title></rect>
<rect class="cell" x="175" y="80" width="12" height="12" rx="3" fill="#111827"><title>2025-09-24: level 0</title></rect>
<rect class="cell" x="175" y="95" width="12" height="12" rx="3" fill="#111827"><title>2025-09-25: level 0</title></rect>
<rect class="cell" x="175" y="110" width="12" height="12" rx="3" fill="#111827"><title>2025-09-26: level 0</title></rect>
<rect class="cell" x="175" y="125" width="12" height="12" rx="3" fill="#111827"><title>2025-09-27: level 0</title></rect>
<rect class="cell" x="190" y="35" width="12" height="12" rx="3" fill="#111827"><title>2025-09-28: level 0</title></rect>
<rect class="cell" x="190" y="50" width="12" height="12" rx="3" fill="#111827"><title>2025-09-29: level 0</title></rect>
<rect class="cell" x="190" y="65" width="12" height="12" rx="3" fill="#111827"><title>2025-09-30: level 0</title></rect>
<rect class="cell" x="190" y="80" width="12" height="12" rx="3" fill="#111827"><title>2025-10-01: level 0</title></rect>
<rect class="cell" x="190" y="95" width="12" height="12" rx="3" fill="#111827"><title>2025-10-02: level 0</title></rect>
<rect class="cell" x="190" y="110" width="12" height="12" rx="3" fill="#111827"><title>2025-10-03: level 0</title></rect>
<rect class="cell" x="190" y="125" width="12" height="12" rx="3" fill="#111827"><title>2025-10-04: level 0</title></rect>
<rect class="cell" x="205" y="35" width="12" height="12" rx="3" fill="#111827"><title>2025-10-05: level 0</title></rect>
<rect class="cell" x="205" y="50" width="12" height="12" rx="3" fill="#111827"><title>2025-10-06: level 0</title></rect>
<rect class="cell" x="205" y="65" width="12" height="12" rx="3" fill="#111827"><title>2025-10-07: level 0</title></rect>
<rect class="cell" x="205" y="80" width="12" height="12" rx="3" fill="#111827"><title>2025-10-08: level 0</title></rect>
<rect class="cell" x="205" y="95" width="12" height="12" rx="3" fill="#111827"><title>2025-10-09: level 0</title></rect>
<rect class="cell" x="205" y="110" width="12" height="12" rx="3" fill="#111827"><title>2025-10-10: level 0</title></rect>
<rect class="cell" x="205" y="125" width="12" height="12" rx="3" fill="#111827"><title>2025-10-11: level 0</title></rect>
<rect class="cell" x="220" y="35" width="12" height="12" rx="3" fill="#111827"><title>2025-10-12: level 0</title></rect>
<rect class="cell" x="220" y="50" width="12" height="12" rx="3" fill="#111827"><title>2025-10-13: level 0</title></rect>
<rect class="cell" x="220" y="65" width="12" height="12" rx="3" fill="#111827"><title>2025-10-14: level 0</title></rect>
<rect class="cell" x="220" y="80" width="12" height="12" rx="3" fill="#111827"><title>2025-10-15: level 0</title></rect>
<rect class="cell" x="220" y="95" width="12" height="12" rx="3" fill="#111827"><title>2025-10-16: level 0</title></rect>
<rect class="cell" x="220" y="110" width="12" height="12" rx="3" fill="#111827"><title>2025-10-17: level 0</title></rect>
<rect class="cell" x="220" y="125" width="12" height="12" rx="3" fill="#111827"><title>2025-10-18: level 0</title></rect>
<rect class="cell" x="235" y="35" width="12" height="12" rx="3" fill="#111827"><title>2025-10-19: level 0</title></rect>
<rect class="cell" x="235" y="50" width="12" height="12" rx="3" fill="#111827"><title>2025-10-20: level 0</title></rect>
<rect class="cell" x="235" y="65" width="12" height="12" rx="3" fill="#111827"><title>2025-10-21: level 0</title></rect>
<rect class="cell" x="235" y="80" width="12" height="12" rx="3" fill="#111827"><title>2025-10-22: level 0</title></rect>
<rect class="cell" x="235" y="95" width="12" height="12" rx="3" fill="#111827"><title>2025-10-23: level 0</title></rect>
<rect class="cell" x="235" y="110" width="12" height="12" rx="3" fill="#111827"><title>2025-10-24: level 0</title></rect>
<rect class="cell" x="235" y="125" width="12" height="12" rx="3" fill="#111827"><title>2025-10-25: level 0</title></rect>
<rect class="cell" x="250" y="35" width="12" height="12" rx="3" fill="#111827"><title>2025-10-26: level 0</title></rect>
<rect class="cell" x="250" y="50" width="12" height="12" rx="3" fill="#111827"><title>2025-10-27: level 0</title></rect>
<rect class="cell" x="250" y="65" width="12" height="12" rx="3" fill="#111827"><title>2025-10-28: level 0</title></rect>
<rect class="cell" x="250" y="80" width="12" height="12" rx="3" fill="#111827"><title>2025-10-29: level 0</title></rect>
<rect class="cell" x="250" y="95" width="12" height="12" rx="3" fill="#111827"><title>2025-10-30: level 0</title></rect>
<rect class="cell" x="250" y="110" width="12" height="12" rx="3" fill="#111827"><title>2025-10-31: level 0</title></rect>
<rect class="cell" x="250" y="125" width="12" height="12" rx="3" fill="#111827"><title>2025-11-01: level 0</title></rect>
<rect class="cell" x="265" y="35" width="12" height="12" rx="3" fill="#111827"><title>2025-11-02: level 0</title></rect>
<rect class="cell" x="265" y="50" width="12" height="12" rx="3" fill="#111827"><title>2025-11-03: level 0</title></rect>
<rect class="cell" x="265" y="65" width="12" height="12" rx="3" fill="#0f766e"><title>2025-11-04: level 1</title></rect>
<rect class="cell" x="265" y="80" width="12" height="12" rx="3" fill="#111827"><title>2025-11-05: level 0</title></rect>
<rect class="cell" x="265" y="95" width="12" height="12" rx="3" fill="#111827"><title>2025-11-06: level 0</title></rect>
<rect class="cell" x="265" y="110" width="12" height="12" rx="3" fill="#111827"><title>2025-11-07: level 0</title></rect>
<rect class="cell" x="265" y="125" width="12" height="12" rx="3" fill="#111827"><title>2025-11-08: level 0</title></rect>
<rect class="cell" x="280" y="35" width="12" height="12" rx="3" fill="#111827"><title>2025-11-09: level 0</title></rect>
<rect class="cell" x="280" y="50" width="12" height="12" rx="3" fill="#111827"><title>2025-11-10: level 0</title></rect>
<rect class="cell" x="280" y="65" width="12" height="12" rx="3" fill="#111827"><title>2025-11-11: level 0</title></rect>
<rect class="cell" x="280" y="80" width="12" height="12" rx="3" fill="#111827"><title>2025-11-12: level 0</title></rect>
<rect class="cell" x="280" y="95" width="12" height="12" rx="3" fill="#111827"><title>2025-11-13: level 0</title></rect>
<rect class="cell" x="280" y="110" width="12" height="12" rx="3" fill="#111827"><title>2025-11-14: level 0</title></rect>
<rect class="cell" x="280" y="125" width="12" height="12" rx="3" fill="#111827"><title>2025-11-15: level 0</title></rect>
<rect class="cell" x="295" y="35" width="12" height="12" rx="3" fill="#111827"><title>2025-11-16: level 0</title></rect>
<rect class="cell" x="295" y="50" width="12" height="12" rx="3" fill="#111827"><title>2025-11-17: level 0</title></rect>
<rect class="cell" x="295" y="65" width="12" height="12" rx="3" fill="#111827"><title>2025-11-18: level 0</title></rect>
<rect class="cell" x="295" y="80" width="12" height="12" rx="3" fill="#111827"><title>2025-11-19: level 0</title></rect>
<rect class="cell" x="295" y="95" width="12" height="12" rx="3" fill="#111827"><title>2025-11-20: level 0</title></rect>
<rect class="cell" x="295" y="110" width="12" height="12" rx="3" fill="#111827"><title>2025-11-21: level 0</title></rect>
<rect class="cell" x="295" y="125" width="12" height="12" rx="3" fill="#111827"><title>2025-11-22: level 0</title></rect>
<rect class="cell" x="310" y="35" width="12" height="12" rx="3" fill="#111827"><title>2025-11-23: level 0</title></rect>
<rect class="cell" x="310" y="50" width="12" height="12" rx="3" fill="#111827"><title>2025-11-24: level 0</title></rect>
<rect class="cell" x="310" y="65" width="12" height="12" rx="3" fill="#111827"><title>2025-11-25: level 0</title></rect>
<rect class="cell" x="310" y="80" width="12" height="12" rx="3" fill="#111827"><title>2025-11-26: level 0</title></rect>
<rect class="cell" x="310" y="95" width="12" height="12" rx="3" fill="#111827"><title>2025-11-27: level 0</title></rect>
<rect class="cell" x="310" y="110" width="12" height="12" rx="3" fill="#111827"><title>2025-11-28: level 0</title></rect>
<rect class="cell" x="310" y="125" width="12" height="12" rx="3" fill="#111827"><title>2025-11-29: level 0</title></rect>
<rect class="cell" x="325" y="35" width="12" height="12" rx="3" fill="#111827"><title>2025-11-30: level 0</title></rect>
<rect class="cell" x="325" y="50" width="12" height="12" rx="3" fill="#111827"><title>2025-12-01: level 0</title></rect>
<rect class="cell" x="325" y="65" width="12" height="12" rx="3" fill="#111827"><title>2025-12-02: level 0</title></rect>
<rect class="cell" x="325" y="80" width="12" height="12" rx="3" fill="#111827"><title>2025-12-03: level 0</title></rect>
<rect class="cell" x="325" y="95" width="12" height="12" rx="3" fill="#111827"><title>2025-12-04: level 0</title></rect>
<rect class="cell" x="325" y="110" width="12" height="12" rx="3" fill="#111827"><title>2025-12-05: level 0</title></rect>
<rect class="cell" x="325" y="125" width="12" height="12" rx="3" fill="#111827"><title>2025-12-06: level 0</title></rect>
<rect class="cell" x="340" y="35" width="12" height="12" rx="3" fill="#111827"><title>2025-12-07: level 0</title></rect>
<rect class="cell" x="340" y="50" width="12" height="12" rx="3" fill="#111827"><title>2025-12-08: level 0</title></rect>
<rect class="cell" x="340" y="65" width="12" height="12" rx="3" fill="#111827"><title>2025-12-09: level 0</title></rect>
<rect class="cell" x="340" y="80" width="12" height="12" rx="3" fill="#111827"><title>2025-12-10: level 0</title></rect>
<rect class="cell" x="340" y="95" width="12" height="12" rx="3" fill="#111827"><title>2025-12-11: level 0</title></rect>
<rect class="cell" x="340" y="110" width="12" height="12" rx="3" fill="#111827"><title>2025-12-12: level 0</title></rect>
<rect class="cell" x="340" y="125" width="12" height="12" rx="3" fill="#111827"><title>2025-12-13: level 0</title></rect>
<rect class="cell" x="355" y="35" width="12" height="12" rx="3" fill="#34d399"><title>2025-12-14: level 3</title></rect>
<rect class="cell" x="355" y="50" width="12" height="12" rx="3" fill="#111827"><title>2025-12-15: level 0</title></rect>
<rect class="cell" x="355" y="65" width="12" height="12" rx="3" fill="#111827"><title>2025-12-16: level 0</title></rect>
<rect class="cell" x="355" y="80" width="12" height="12" rx="3" fill="#111827"><title>2025-12-17: level 0</title></rect>
<rect class="cell" x="355" y="95" width="12" height="12" rx="3" fill="#111827"><title>2025-12-18: level 0</title></rect>
<rect class="cell" x="355" y="110" width="12" height="12" rx="3" fill="#111827"><title>2025-12-19: level 0</title></rect>
<rect class="cell" x="355" y="125" width="12" height="12" rx="3" fill="#111827"><title>2025-12-20: level 0</title></rect>
<rect class="cell" x="370" y="35" width="12" height="12" rx="3" fill="#111827"><title>2025-12-21: level 0</title></rect>
<rect class="cell" x="370" y="50" width="12" height="12" rx="3" fill="#111827"><title>2025-12-22: level 0</title></rect>
<rect class="cell" x="370" y="65" width="12" height="12" rx="3" fill="#0f766e"><title>2025-12-23: level 1</title></rect>
<rect class="cell" x="370" y="80" width="12" height="12" rx="3" fill="#34d399"><title>2025-12-24: level 3</title></rect>
<rect class="cell" x="370" y="95" width="12" height="12" rx="3" fill="#111827"><title>2025-12-25: level 0</title></rect>
<rect class="cell" x="370" y="110" width="12" height="12" rx="3" fill="#111827"><title>2025-12-26: level 0</title></rect>
<rect class="cell" x="370" y="125" width="12" height="12" rx="3" fill="#111827"><title>2025-12-27: level 0</title></rect>
<rect class="cell" x="385" y="35" width="12" height="12" rx="3" fill="#111827"><title>2025-12-28: level 0</title></rect>
<rect class="cell" x="385" y="50" width="12" height="12" rx="3" fill="#111827"><title>2025-12-29: level 0</title></rect>
<rect class="cell" x="385" y="65" width="12" height="12" rx="3" fill="#111827"><title>2025-12-30: level 0</title></rect>
<rect class="cell" x="385" y="80" width="12" height="12" rx="3" fill="#111827"><title>2025-12-31: level 0</title></rect>
<rect class="cell" x="385" y="95" width="12" height="12" rx="3" fill="#0f766e"><title>2026-01-01: level 1</title></rect>
<rect class="cell" x="385" y="110" width="12" height="12" rx="3" fill="#6ee7b7"><title>2026-01-02: level 4</title></rect>
<rect class="cell" x="385" y="125" width="12" height="12" rx="3" fill="#111827"><title>2026-01-03: level 0</title></rect>
<rect class="cell" x="400" y="35" width="12" height="12" rx="3" fill="#111827"><title>2026-01-04: level 0</title></rect>
<rect class="cell" x="400" y="50" width="12" height="12" rx="3" fill="#0f766e"><title>2026-01-05: level 1</title></rect>
<rect class="cell" x="400" y="65" width="12" height="12" rx="3" fill="#6ee7b7"><title>2026-01-06: level 4</title></rect>
<rect class="cell" x="400" y="80" width="12" height="12" rx="3" fill="#111827"><title>2026-01-07: level 0</title></rect>
<rect class="cell" x="400" y="95" width="12" height="12" rx="3" fill="#111827"><title>2026-01-08: level 0</title></rect>
<rect class="cell" x="400" y="110" width="12" height="12" rx="3" fill="#111827"><title>2026-01-09: level 0</title></rect>
<rect class="cell" x="400" y="125" width="12" height="12" rx="3" fill="#111827"><title>2026-01-10: level 0</title></rect>
<rect class="cell" x="415" y="35" width="12" height="12" rx="3" fill="#111827"><title>2026-01-11: level 0</title></rect>
<rect class="cell" x="415" y="50" width="12" height="12" rx="3" fill="#111827"><title>2026-01-12: level 0</title></rect>
<rect class="cell" x="415" y="65" width="12" height="12" rx="3" fill="#111827"><title>2026-01-13: level 0</title></rect>
<rect class="cell" x="415" y="80" width="12" height="12" rx="3" fill="#111827"><title>2026-01-14: level 0</title></rect>
<rect class="cell" x="415" y="95" width="12" height="12" rx="3" fill="#111827"><title>2026-01-15: level 0</title></rect>
<rect class="cell" x="415" y="110" width="12" height="12" rx="3" fill="#111827"><title>2026-01-16: level 0</title></rect>
<rect class="cell" x="415" y="125" width="12" height="12" rx="3" fill="#111827"><title>2026-01-17: level 0</title></rect>
<rect class="cell" x="430" y="35" width="12" height="12" rx="3" fill="#111827"><title>2026-01-18: level 0</title></rect>
<rect class="cell" x="430" y="50" width="12" height="12" rx="3" fill="#111827"><title>2026-01-19: level 0</title></rect>
<rect class="cell" x="430" y="65" width="12" height="12" rx="3" fill="#111827"><title>2026-01-20: level 0</title></rect>
<rect class="cell" x="430" y="80" width="12" height="12" rx="3" fill="#111827"><title>2026-01-21: level 0</title></rect>
<rect class="cell" x="430" y="95" width="12" height="12" rx="3" fill="#111827"><title>2026-01-22: level 0</title></rect>
<rect class="cell" x="430" y="110" width="12" height="12" rx="3" fill="#111827"><title>2026-01-23: level 0</title></rect>
<rect class="cell" x="430" y="125" width="12" height="12" rx="3" fill="#111827"><title>2026-01-24: level 0</title></rect>
<rect class="cell" x="445" y="35" width="12" height="12" rx="3" fill="#111827"><title>2026-01-25: level 0</title></rect>
<rect class="cell" x="445" y="50" width="12" height="12" rx="3" fill="#111827"><title>2026-01-26: level 0</title></rect>
<rect class="cell" x="445" y="65" width="12" height="12" rx="3" fill="#111827"><title>2026-01-27: level 0</title></rect>
<rect class="cell" x="445" y="80" width="12" height="12" rx="3" fill="#111827"><title>2026-01-28: level 0</title></rect>
<rect class="cell" x="445" y="95" width="12" height="12" rx="3" fill="#111827"><title>2026-01-29: level 0</title></rect>
<rect class="cell" x="445" y="110" width="12" height="12" rx="3" fill="#111827"><title>2026-01-30: level 0</title></rect>
<rect class="cell" x="445" y="125" width="12" height="12" rx="3" fill="#111827"><title>2026-01-31: level 0</title></rect>
<rect class="cell" x="460" y="35" width="12" height="12" rx="3" fill="#111827"><title>2026-02-01: level 0</title></rect>
<rect class="cell" x="460" y="50" width="12" height="12" rx="3" fill="#0f766e"><title>2026-02-02: level 1</title></rect>
<rect class="cell" x="460" y="65" width="12" height="12" rx="3" fill="#111827"><title>2026-02-03: level 0</title></rect>
<rect class="cell" x="460" y="80" width="12" height="12" rx="3" fill="#111827"><title>2026-02-04: level 0</title></rect>
<rect class="cell" x="460" y="95" width="12" height="12" rx="3" fill="#111827"><title>2026-02-05: level 0</title></rect>
<rect class="cell" x="460" y="110" width="12" height="12" rx="3" fill="#111827"><title>2026-02-06: level 0</title></rect>
<rect class="cell" x="460" y="125" width="12" height="12" rx="3" fill="#111827"><title>2026-02-07: level 0</title></rect>
<rect class="cell" x="475" y="35" width="12" height="12" rx="3" fill="#111827"><title>2026-02-08: level 0</title></rect>
<rect class="cell" x="475" y="50" width="12" height="12" rx="3" fill="#111827"><title>2026-02-09: level 0</title></rect>
<rect class="cell" x="475" y="65" width="12" height="12" rx="3" fill="#111827"><title>2026-02-10: level 0</title></rect>
<rect class="cell" x="475" y="80" width="12" height="12" rx="3" fill="#111827"><title>2026-02-11: level 0</title></rect>
<rect class="cell" x="475" y="95" width="12" height="12" rx="3" fill="#111827"><title>2026-02-12: level 0</title></rect>
<rect class="cell" x="475" y="110" width="12" height="12" rx="3" fill="#111827"><title>2026-02-13: level 0</title></rect>
<rect class="cell" x="475" y="125" width="12" height="12" rx="3" fill="#111827"><title>2026-02-14: level 0</title></rect>
<rect class="cell" x="490" y="35" width="12" height="12" rx="3" fill="#111827"><title>2026-02-15: level 0</title></rect>
<rect class="cell" x="490" y="50" width="12" height="12" rx="3" fill="#111827"><title>2026-02-16: level 0</title></rect>
<rect class="cell" x="490" y="65" width="12" height="12" rx="3" fill="#111827"><title>2026-02-17: level 0</title></rect>
<rect class="cell" x="490" y="80" width="12" height="12" rx="3" fill="#111827"><title>2026-02-18: level 0</title></rect>
<rect class="cell" x="490" y="95" width="12" height="12" rx="3" fill="#111827"><title>2026-02-19: level 0</title></rect>
<rect class="cell" x="490" y="110" width="12" height="12" rx="3" fill="#111827"><title>2026-02-20: level 0</title></rect>
<rect class="cell" x="490" y="125" width="12" height="12" rx="3" fill="#111827"><title>2026-02-21: level 0</title></rect>
<rect class="cell" x="505" y="35" width="12" height="12" rx="3" fill="#111827"><title>2026-02-22: level 0</title></rect>
<rect class="cell" x="505" y="50" width="12" height="12" rx="3" fill="#111827"><title>2026-02-23: level 0</title></rect>
<rect class="cell" x="505" y="65" width="12" height="12" rx="3" fill="#111827"><title>2026-02-24: level 0</title></rect>
<rect class="cell" x="505" y="80" width="12" height="12" rx="3" fill="#111827"><title>2026-02-25: level 0</title></rect>
<rect class="cell" x="505" y="95" width="12" height="12" rx="3" fill="#111827"><title>2026-02-26: level 0</title></rect>
<rect class="cell" x="505" y="110" width="12" height="12" rx="3" fill="#111827"><title>2026-02-27: level 0</title></rect>
<rect class="cell" x="505" y="125" width="12" height="12" rx="3" fill="#111827"><title>2026-02-28: level 0</title></rect>
<rect class="cell" x="520" y="35" width="12" height="12" rx="3" fill="#111827"><title>2026-03-01: level 0</title></rect>
<rect class="cell" x="520" y="50" width="12" height="12" rx="3" fill="#111827"><title>2026-03-02: level 0</title></rect>
<rect class="cell" x="520" y="65" width="12" height="12" rx="3" fill="#111827"><title>2026-03-03: level 0</title></rect>
<rect class="cell" x="520" y="80" width="12" height="12" rx="3" fill="#111827"><title>2026-03-04: level 0</title></rect>
<rect class="cell" x="520" y="95" width="12" height="12" rx="3" fill="#6ee7b7"><title>2026-03-05: level 4</title></rect>
<rect class="cell" x="520" y="110" width="12" height="12" rx="3" fill="#0f766e"><title>2026-03-06: level 1</title></rect>
<rect class="cell" x="520" y="125" width="12" height="12" rx="3" fill="#111827"><title>2026-03-07: level 0</title></rect>
<rect class="cell" x="535" y="35" width="12" height="12" rx="3" fill="#111827"><title>2026-03-08: level 0</title></rect>
<rect class="cell" x="535" y="50" width="12" height="12" rx="3" fill="#111827"><title>2026-03-09: level 0</title></rect>
<rect class="cell" x="535" y="65" width="12" height="12" rx="3" fill="#111827"><title>2026-03-10: level 0</title></rect>
<rect class="cell" x="535" y="80" width="12" height="12" rx="3" fill="#111827"><title>2026-03-11: level 0</title></rect>
<rect class="cell" x="535" y="95" width="12" height="12" rx="3" fill="#111827"><title>2026-03-12: level 0</title></rect>
<rect class="cell" x="535" y="110" width="12" height="12" rx="3" fill="#111827"><title>2026-03-13: level 0</title></rect>
<rect class="cell" x="535" y="125" width="12" height="12" rx="3" fill="#111827"><title>2026-03-14: level 0</title></rect>
<rect class="cell" x="550" y="35" width="12" height="12" rx="3" fill="#111827"><title>2026-03-15: level 0</title></rect>
<rect class="cell" x="550" y="50" width="12" height="12" rx="3" fill="#111827"><title>2026-03-16: level 0</title></rect>
<rect class="cell" x="550" y="65" width="12" height="12" rx="3" fill="#111827"><title>2026-03-17: level 0</title></rect>
<rect class="cell" x="550" y="80" width="12" height="12" rx="3" fill="#111827"><title>2026-03-18: level 0</title></rect>
<rect class="cell" x="550" y="95" width="12" height="12" rx="3" fill="#111827"><title>2026-03-19: level 0</title></rect>
<rect class="cell" x="550" y="110" width="12" height="12" rx="3" fill="#111827"><title>2026-03-20: level 0</title></rect>
<rect class="cell" x="550" y="125" width="12" height="12" rx="3" fill="#111827"><title>2026-03-21: level 0</title></rect>
<rect class="cell" x="565" y="35" width="12" height="12" rx="3" fill="#111827"><title>2026-03-22: level 0</title></rect>
<rect class="cell" x="565" y="50" width="12" height="12" rx="3" fill="#111827"><title>2026-03-23: level 0</title></rect>
<rect class="cell" x="565" y="65" width="12" height="12" rx="3" fill="#111827"><title>2026-03-24: level 0</title></rect>
<rect class="cell" x="565" y="80" width="12" height="12" rx="3" fill="#111827"><title>2026-03-25: level 0</title></rect>
<rect class="cell" x="565" y="95" width="12" height="12" rx="3" fill="#111827"><title>2026-03-26: level 0</title></rect>
<rect class="cell" x="565" y="110" width="12" height="12" rx="3" fill="#111827"><title>2026-03-27: level 0</title></rect>
<rect class="cell" x="565" y="125" width="12" height="12" rx="3" fill="#111827"><title>2026-03-28: level 0</title></rect>
<rect class="cell" x="580" y="35" width="12" height="12" rx="3" fill="#111827"><title>2026-03-29: level 0</title></rect>
<rect class="cell" x="580" y="50" width="12" height="12" rx="3" fill="#111827"><title>2026-03-30: level 0</title></rect>
<rect class="cell" x="580" y="65" width="12" height="12" rx="3" fill="#111827"><title>2026-03-31: level 0</title></rect>
<rect class="cell" x="580" y="80" width="12" height="12" rx="3" fill="#111827"><title>2026-04-01: level 0</title></rect>
<rect class="cell" x="580" y="95" width="12" height="12" rx="3" fill="#111827"><title>2026-04-02: level 0</title></rect>
<rect class="cell" x="580" y="110" width="12" height="12" rx="3" fill="#111827"><title>2026-04-03: level 0</title></rect>
<rect class="cell" x="580" y="125" width="12" height="12" rx="3" fill="#111827"><title>2026-04-04: level 0</title></rect>
<rect class="cell" x="595" y="35" width="12" height="12" rx="3" fill="#111827"><title>2026-04-05: level 0</title></rect>
<rect class="cell" x="595" y="50" width="12" height="12" rx="3" fill="#111827"><title>2026-04-06: level 0</title></rect>
<rect class="cell" x="595" y="65" width="12" height="12" rx="3" fill="#111827"><title>2026-04-07: level 0</title></rect>
<rect class="cell" x="595" y="80" width="12" height="12" rx="3" fill="#111827"><title>2026-04-08: level 0</title></rect>
<rect class="cell" x="595" y="95" width="12" height="12" rx="3" fill="#111827"><title>2026-04-09: level 0</title></rect>
<rect class="cell" x="595" y="110" width="12" height="12" rx="3" fill="#111827"><title>2026-04-10: level 0</title></rect>
<rect class="cell" x="595" y="125" width="12" height="12" rx="3" fill="#111827"><title>2026-04-11: level 0</title></rect>
<rect class="cell" x="610" y="35" width="12" height="12" rx="3" fill="#111827"><title>2026-04-12: level 0</title></rect>
<rect class="cell" x="610" y="50" width="12" height="12" rx="3" fill="#111827"><title>2026-04-13: level 0</title></rect>
<rect class="cell" x="610" y="65" width="12" height="12" rx="3" fill="#111827"><title>2026-04-14: level 0</title></rect>
<rect class="cell" x="610" y="80" width="12" height="12" rx="3" fill="#111827"><title>2026-04-15: level 0</title></rect>
<rect class="cell" x="610" y="95" width="12" height="12" rx="3" fill="#111827"><title>2026-04-16: level 0</title></rect>
<rect class="cell" x="610" y="110" width="12" height="12" rx="3" fill="#111827"><title>2026-04-17: level 0</title></rect>
<rect class="cell" x="610" y="125" width="12" height="12" rx="3" fill="#111827"><title>2026-04-18: level 0</title></rect>
<rect class="cell" x="625" y="35" width="12" height="12" rx="3" fill="#111827"><title>2026-04-19: level 0</title></rect>
<rect class="cell" x="625" y="50" width="12" height="12" rx="3" fill="#111827"><title>2026-04-20: level 0</title></rect>
<rect class="cell" x="625" y="65" width="12" height="12" rx="3" fill="#111827"><title>2026-04-21: level 0</title></rect>
<rect class="cell" x="625" y="80" width="12" height="12" rx="3" fill="#111827"><title>2026-04-22: level 0</title></rect>
<rect class="cell" x="625" y="95" width="12" height="12" rx="3" fill="#111827"><title>2026-04-23: level 0</title></rect>
<rect class="cell" x="625" y="110" width="12" height="12" rx="3" fill="#111827"><title>2026-04-24: level 0</title></rect>
<rect class="cell" x="625" y="125" width="12" height="12" rx="3" fill="#111827"><title>2026-04-25: level 0</title></rect>
<rect class="cell" x="640" y="35" width="12" height="12" rx="3" fill="#111827"><title>2026-04-26: level 0</title></rect>
<rect class="cell" x="640" y="50" width="12" height="12" rx="3" fill="#111827"><title>2026-04-27: level 0</title></rect>
<rect class="cell" x="640" y="65" width="12" height="12" rx="3" fill="#111827"><title>2026-04-28: level 0</title></rect>
<rect class="cell" x="640" y="80" width="12" height="12" rx="3" fill="#111827"><title>2026-04-29: level 0</title></rect>
<rect class="cell" x="640" y="95" width="12" height="12" rx="3" fill="#111827"><title>2026-04-30: level 0</title></rect>
<rect class="cell" x="640" y="110" width="12" height="12" rx="3" fill="#111827"><title>2026-05-01: level 0</title></rect>
<rect class="cell" x="640" y="125" width="12" height="12" rx="3" fill="#111827"><title>2026-05-02: level 0</title></rect>
<rect class="cell" x="655" y="35" width="12" height="12" rx="3" fill="#111827"><title>2026-05-03: level 0</title></rect>
<rect class="cell" x="655" y="50" width="12" height="12" rx="3" fill="#111827"><title>2026-05-04: level 0</title></rect>
<rect class="cell" x="655" y="65" width="12" height="12" rx="3" fill="#111827"><title>2026-05-05: level 0</title></rect>
<rect class="cell" x="655" y="80" width="12" height="12" rx="3" fill="#111827"><title>2026-05-06: level 0</title></rect>
<rect class="cell" x="655" y="95" width="12" height="12" rx="3" fill="#111827"><title>2026-05-07: level 0</title></rect>
<rect class="cell" x="655" y="110" width="12" height="12" rx="3" fill="#111827"><title>2026-05-08: level 0</title></rect>
<rect class="cell" x="655" y="125" width="12" height="12" rx="3" fill="#111827"><title>2026-05-09: level 0</title></rect>
<rect class="cell" x="670" y="35" width="12" height="12" rx="3" fill="#111827"><title>2026-05-10: level 0</title></rect>
<rect class="cell" x="670" y="50" width="12" height="12" rx="3" fill="#111827"><title>2026-05-11: level 0</title></rect>
<rect class="cell" x="670" y="65" width="12" height="12" rx="3" fill="#111827"><title>2026-05-12: level 0</title></rect>
<rect class="cell" x="670" y="80" width="12" height="12" rx="3" fill="#111827"><title>2026-05-13: level 0</title></rect>
<rect class="cell" x="670" y="95" width="12" height="12" rx="3" fill="#111827"><title>2026-05-14: level 0</title></rect>
<rect class="cell" x="670" y="110" width="12" height="12" rx="3" fill="#111827"><title>2026-05-15: level 0</title></rect>
<rect class="cell" x="670" y="125" width="12" height="12" rx="3" fill="#111827"><title>2026-05-16: level 0</title></rect>
<rect class="cell" x="685" y="35" width="12" height="12" rx="3" fill="#111827"><title>2026-05-17: level 0</title></rect>
<rect class="cell" x="685" y="50" width="12" height="12" rx="3" fill="#111827"><title>2026-05-18: level 0</title></rect>
<rect class="cell" x="685" y="65" width="12" height="12" rx="3" fill="#111827"><title>2026-05-19: level 0</title></rect>
<rect class="cell" x="685" y="80" width="12" height="12" rx="3" fill="#111827"><title>2026-05-20: level 0</title></rect>
<rect class="cell" x="685" y="95" width="12" height="12" rx="3" fill="#111827"><title>2026-05-21: level 0</title></rect>
<rect class="cell" x="685" y="110" width="12" height="12" rx="3" fill="#111827"><title>2026-05-22: level 0</title></rect>
<rect class="cell" x="685" y="125" width="12" height="12" rx="3" fill="#111827"><title>2026-05-23: level 0</title></rect>
<rect class="cell" x="700" y="35" width="12" height="12" rx="3" fill="#111827"><title>2026-05-24: level 0</title></rect>
<rect class="cell" x="700" y="50" width="12" height="12" rx="3" fill="#111827"><title>2026-05-25: level 0</title></rect>
<rect class="cell" x="700" y="65" width="12" height="12" rx="3" fill="#111827"><title>2026-05-26: level 0</title></rect>
<rect class="cell" x="700" y="80" width="12" height="12" rx="3" fill="#111827"><title>2026-05-27: level 0</title></rect>
<rect class="cell" x="700" y="95" width="12" height="12" rx="3" fill="#111827"><title>2026-05-28: level 0</title></rect>
<rect class="cell" x="700" y="110" width="12" height="12" rx="3" fill="#111827"><title>2026-05-29: level 0</title></rect>
<rect class="cell" x="700" y="125" width="12" height="12" rx="3" fill="#111827"><title>2026-05-30: level 0</title></rect>
<rect class="cell" x="715" y="35" width="12" height="12" rx="3" fill="#111827"><title>2026-05-31: level 0</title></rect>
<rect class="cell" x="715" y="50" width="12" height="12" rx="3" fill="#111827"><title>2026-06-01: level 0</title></rect>
<rect class="cell" x="715" y="65" width="12" height="12" rx="3" fill="#111827"><title>2026-06-02: level 0</title></rect>
<rect class="cell" x="715" y="80" width="12" height="12" rx="3" fill="#111827"><title>2026-06-03: level 0</title></rect>
<rect class="cell" x="715" y="95" width="12" height="12" rx="3" fill="#111827"><title>2026-06-04: level 0</title></rect>
<rect class="cell" x="715" y="110" width="12" height="12" rx="3" fill="#111827"><title>2026-06-05: level 0</title></rect>
<rect class="cell" x="715" y="125" width="12" height="12" rx="3" fill="#111827"><title>2026-06-06: level 0</title></rect>
<rect class="cell" x="730" y="35" width="12" height="12" rx="3" fill="#6ee7b7"><title>2026-06-07: level 4</title></rect>
<rect class="cell" x="730" y="50" width="12" height="12" rx="3" fill="#111827"><title>2026-06-08: level 0</title></rect>
<rect class="cell" x="730" y="65" width="12" height="12" rx="3" fill="#111827"><title>2026-06-09: level 0</title></rect>
<rect class="cell" x="730" y="80" width="12" height="12" rx="3" fill="#111827"><title>2026-06-10: level 0</title></rect>
<rect class="cell" x="730" y="95" width="12" height="12" rx="3" fill="#111827"><title>2026-06-11: level 0</title></rect>
<rect class="cell" x="730" y="110" width="12" height="12" rx="3" fill="#111827"><title>2026-06-12: level 0</title></rect>
<rect class="cell" x="730" y="125" width="12" height="12" rx="3" fill="#111827"><title>2026-06-13: level 0</title></rect>
<rect class="cell" x="745" y="35" width="12" height="12" rx="3" fill="#111827"><title>2026-06-14: level 0</title></rect>
<rect class="cell" x="745" y="50" width="12" height="12" rx="3" fill="#111827"><title>2026-06-15: level 0</title></rect>
<rect class="cell" x="745" y="65" width="12" height="12" rx="3" fill="#111827"><title>2026-06-16: level 0</title></rect>
<rect class="cell" x="745" y="80" width="12" height="12" rx="3" fill="#111827"><title>2026-06-17: level 0</title></rect>
<rect class="cell" x="745" y="95" width="12" height="12" rx="3" fill="#111827"><title>2026-06-18: level 0</title></rect>
<rect class="cell" x="745" y="110" width="12" height="12" rx="3" fill="#111827"><title>2026-06-19: level 0</title></rect>
<rect class="cell" x="745" y="125" width="12" height="12" rx="3" fill="#111827"><title>2026-06-20: level 0</title></rect>
<rect class="cell" x="760" y="35" width="12" height="12" rx="3" fill="#6ee7b7"><title>2026-06-21: level 4</title></rect>
<rect class="cell" x="760" y="50" width="12" height="12" rx="3" fill="#111827"><title>2026-06-22: level 0</title></rect>
<rect class="cell" x="760" y="65" width="12" height="12" rx="3" fill="#111827"><title>2026-06-23: level 0</title></rect>
<rect class="cell" x="760" y="80" width="12" height="12" rx="3" fill="#111827"><title>2026-06-24: level 0</title></rect>
<rect class="cell" x="760" y="95" width="12" height="12" rx="3" fill="#111827"><title>2026-06-25: level 0</title></rect>
<rect class="cell" x="760" y="110" width="12" height="12" rx="3" fill="#0f766e"><title>2026-06-26: level 1</title></rect>
<rect class="cell" x="760" y="125" width="12" height="12" rx="3" fill="#111827"><title>2026-06-27: level 0</title></rect>
<rect class="cell" x="775" y="35" width="12" height="12" rx="3" fill="#111827"><title>2026-06-28: level 0</title></rect>
<rect class="cell" x="775" y="50" width="12" height="12" rx="3" fill="#111827"><title>2026-06-29: level 0</title></rect>
<rect class="cell" x="775" y="65" width="12" height="12" rx="3" fill="#111827"><title>2026-06-30: level 0</title></rect>
<rect class="cell" x="775" y="80" width="12" height="12" rx="3" fill="#111827"><title>2026-07-01: level 0</title></rect>
<rect class="cell" x="775" y="95" width="12" height="12" rx="3" fill="#0ea5a4"><title>2026-07-02: level 2</title></rect>
<rect class="cell" x="775" y="110" width="12" height="12" rx="3" fill="#111827"><title>2026-07-03: level 0</title></rect>
<rect class="cell" x="775" y="125" width="12" height="12" rx="3" fill="#0ea5a4"><title>2026-07-04: level 2</title></rect>
<rect class="cell" x="790" y="35" width="12" height="12" rx="3" fill="#111827"><title>2026-07-05: level 0</title></rect>
<rect class="cell" x="790" y="50" width="12" height="12" rx="3" fill="#111827"><title>2026-07-06: level 0</title></rect>
<rect class="cell" x="790" y="65" width="12" height="12" rx="3" fill="#34d399"><title>2026-07-07: level 3</title></rect>
<rect class="cell" x="790" y="80" width="12" height="12" rx="3" fill="#111827"><title>2026-07-08: level 0</title></rect>
<rect class="cell" x="790" y="95" width="12" height="12" rx="3" fill="#111827"><title>2026-07-09: level 0</title></rect>
<rect class="cell" x="790" y="110" width="12" height="12" rx="3" fill="#111827"><title>2026-07-10: level 0</title></rect>
<rect class="cell" x="790" y="125" width="12" height="12" rx="3" fill="#111827"><title>2026-07-11: level 0</title></rect>
<rect class="cell" x="805" y="35" width="12" height="12" rx="3" fill="#111827"><title>2026-07-12: level 0</title></rect>
<rect class="cell" x="805" y="50" width="12" height="12" rx="3" fill="#111827"><title>2026-07-13: level 0</title></rect>
<rect class="cell" x="805" y="65" width="12" height="12" rx="3" fill="#111827"><title>2026-07-14: level 0</title></rect>
<rect class="cell" x="805" y="80" width="12" height="12" rx="3" fill="#111827"><title>2026-07-15: level 0</title></rect>
<rect class="cell" x="805" y="95" width="12" height="12" rx="3" fill="#111827"><title>2026-07-16: level 0</title></rect>
<rect class="cell" x="805" y="110" width="12" height="12" rx="3" fill="#111827"><title>2026-07-17: level 0</title></rect>
<rect class="cell" x="805" y="125" width="12" height="12" rx="3" fill="#34d399"><title>2026-07-18: level 3</title></rect>
<rect class="cell" x="820" y="35" width="12" height="12" rx="3" fill="#6ee7b7"><title>2026-07-19: level 4</title></rect>
<rect class="cell" x="820" y="50" width="12" height="12" rx="3" fill="#111827"><title>2026-07-20: level 0</title></rect>
<rect class="cell" x="820" y="65" width="12" height="12" rx="3" fill="#111827"><title>2026-07-21: level 0</title></rect>
<rect class="cell" x="820" y="80" width="12" height="12" rx="3" fill="#111827"><title>2026-07-22: level 0</title></rect>
<rect class="cell" x="820" y="95" width="12" height="12" rx="3" fill="#111827"><title>2026-07-23: level 0</title></rect>
<rect class="cell" x="820" y="110" width="12" height="12" rx="3" fill="#111827"><title>2026-07-24: level 0</title></rect>
<rect class="cell" x="820" y="125" width="12" height="12" rx="3" fill="#111827"><title>2026-07-25: level 0</title></rect>
<text x="40" y="155" class="meta">Less</text>
<rect x="75" y="146" width="12" height="12" rx="3" fill="#111827" />
<rect x="93" y="146" width="12" height="12" rx="3" fill="#0f766e" />
<rect x="111" y="146" width="12" height="12" rx="3" fill="#0ea5a4" />
<rect x="129" y="146" width="12" height="12" rx="3" fill="#34d399" />
<rect x="147" y="146" width="12" height="12" rx="3" fill="#6ee7b7" />
<rect x="165" y="146" width="12" height="12" rx="3" fill="#a7f3d0" />
<text x="190" y="155" class="meta">More</text></svg>